<svg xmlns="http://www.w3.org/2000/svg" width="28" height="27.999" viewBox="0 0 28 27.999"><defs><style>.a{fill:#fff;}</style></defs><path class="a" d="M278.207,209.758H289.29a.875.875,0,0,0,0-1.75H278.207a.875.875,0,0,0,0,1.75Zm0,0" transform="translate(-277.331 -196.633)"/><path class="a" d="M405.255,138.472a.876.876,0,0,0,.618-1.494l-3.757-3.756,3.757-3.757a.875.875,0,0,0-1.238-1.238L400.26,132.6a.875.875,0,0,0,0,1.238l4.375,4.375A.869.869,0,0,0,405.255,138.472Zm0,0" transform="translate(-400.004 -120.972)"/><path class="a" d="M2.333,28.007a2.4,2.4,0,0,0,.723-.109l7.021-2.339a2.355,2.355,0,0,0,1.589-2.219v-21A2.336,2.336,0,0,0,9.333.008a2.406,2.406,0,0,0-.723.109L1.589,2.456A2.354,2.354,0,0,0,0,4.674v21a2.336,2.336,0,0,0,2.333,2.333Zm7-26.249a.585.585,0,0,1,.583.583v21a.606.606,0,0,1-.4.562L2.523,26.232a.634.634,0,0,1-.19.026.585.585,0,0,1-.583-.583v-21a.606.606,0,0,1,.4-.562L9.143,1.784a.633.633,0,0,1,.19-.026Zm0,0" transform="translate(16.334 -0.008)"/><path class="a" d="M27.543,9.341a.875.875,0,0,0,.875-.875V3.216a1.46,1.46,0,0,1,1.458-1.458H43a.875.875,0,0,0,0-1.75H29.876a3.211,3.211,0,0,0-3.208,3.208v5.25A.875.875,0,0,0,27.543,9.341Zm0,0" transform="translate(-17.334 -0.008)"/><path class="a" d="M184.54,286.673h4.667a.875.875,0,1,0,0-1.75H184.54a1.46,1.46,0,0,1-1.458-1.458v-5.25a.875.875,0,1,0-1.75,0v5.25A3.211,3.211,0,0,0,184.54,286.673Zm0,0" transform="translate(-171.998 -262.174)"/></svg>